# xmcd
#
# Track frame offsets:
#	150
#	22512
#	48190
#	70824
#	89171
#	113576
#	132434
#	153993
#	175053
#	194057
#	221238
#	247482
#
# Disc length: 3590 seconds
#
# Revision: 3
# Processed by: cddbd v1.5.2PL0 Copyright (c) Steve Scherf et al.
# Submitted via: EZCDAudioConverter 8.0.2.1
#
DISCID=ad0e040c
DTITLE=Đàm Vĩnh Hưng - Vol 08. Tình Ca Hoài Niệm
DYEAR=2006
DGENRE=World Pop
TTITLE0=Hoa học trò
TTITLE1=Ai về sông Tương
TTITLE2=Lệ đá
TTITLE3=Lời cuối cho em
TTITLE4=Bản tình cuối
TTITLE5=Ai đưa em về
TTITLE6=Tháng sáu trời mưa
TTITLE7=Tôi đi giữa hoàng hôn
TTITLE8=Thương hoài ngàn năm
TTITLE9=Nỗi lòng
TTITLE10=Xin dìu nhau đến tình yêu
TTITLE11=Mộng dưới hoa
EXTD=
EXTT0=
EXTT1=
EXTT2=
EXTT3=
EXTT4=
EXTT5=
EXTT6=
EXTT7=
EXTT8=
EXTT9=
EXTT10=
EXTT11=
PLAYORDER=
